<svg id="Layer_1" enable-background="new 0 0 450 450" height="512" viewBox="0 0 450 450" width="512" xmlns="http://www.w3.org/2000/svg"><g><g><g><path d="m119.2 350.6c-2.8 0-5-2.2-5-5v-168.8c0-1.6.7-3.1 2-4l135.4-100.8c1.8-1.3 4.2-1.3 6 0l135.4 100.8c1.3.9 2 2.4 2 4v23.6c0 2.8-2.2 5-5 5s-5-2.2-5-5v-21.1l-130.4-97.1-130.4 97.2v166.2c0 2.8-2.2 5-5 5z"/></g><g><path d="m361.2 135.9c-2.8 0-5-2.2-5-5v-45.8c0-2.8 2.2-5 5-5s5 2.2 5 5v45.8c0 2.8-2.2 5-5 5z"/><path d="m334.2 116.3c-2.8 0-5-2.2-5-5v-26.2c0-2.8 2.2-5 5-5s5 2.2 5 5v26.2c0 2.7-2.3 5-5 5z"/><path d="m370.9 90h-46.4c-2.8 0-5-2.2-5-5v-17.5c0-2.8 2.2-5 5-5h46.4c2.8 0 5 2.2 5 5v17.5c0 2.8-2.3 5-5 5zm-41.4-10h36.4v-7.5h-36.4z"/></g><g><path d="m270.8 300.3c-.3 0-.7 0-1-.1s-.6-.2-.9-.3-.6-.3-.9-.5-.5-.4-.8-.6c-.9-.9-1.5-2.2-1.5-3.5s.5-2.6 1.5-3.5c.2-.2.5-.4.8-.6s.6-.3.9-.5c.3-.1.6-.2.9-.3.6-.1 1.3-.1 2 0l.9.3c.3.1.6.3.9.5s.5.4.8.6c.9.9 1.5 2.2 1.5 3.5s-.5 2.6-1.5 3.5c-.2.2-.5.4-.8.6s-.6.3-.9.5c-.3.1-.6.2-.9.3s-.6.1-1 .1z"/><path d="m222.3 350.6c-2.8 0-5-2.2-5-5v-100.5c0-2.8 2.2-5 5-5h64.5c2.8 0 5 2.2 5 5v57.9c0 2.8-2.2 5-5 5s-5-2.2-5-5v-52.9h-54.5v95.5c0 2.8-2.2 5-5 5z"/></g><path d="m424.6 181.9h-34.6c-2.8 0-5-2.2-5-5s2.2-5 5-5h19.2l-154.6-112.2-154.6 112.2h19.2c2.8 0 5 2.2 5 5s-2.2 5-5 5h-34.6c-2.2 0-4.1-1.4-4.8-3.5s.1-4.3 1.8-5.6l170-123.3c1.8-1.3 4.1-1.3 5.9 0l170 123.3c1.8 1.3 2.5 3.5 1.8 5.6s-2.5 3.5-4.7 3.5z"/><g><g><g><g><path d="m340.1 231.7h-51.7c-2.8 0-5-2.2-5-5v-51.7c0-2.8 2.2-5 5-5h51.7c2.8 0 5 2.2 5 5v51.7c0 2.8-2.2 5-5 5zm-46.7-10h41.7v-41.7h-41.7z"/></g><path d="m314.3 231.7c-2.8 0-5-2.2-5-5v-51.7c0-2.8 2.2-5 5-5s5 2.2 5 5v51.7c0 2.8-2.3 5-5 5z"/></g><g><g><path d="m220.7 231.7h-51.7c-2.8 0-5-2.2-5-5v-51.7c0-2.8 2.2-5 5-5h51.7c2.8 0 5 2.2 5 5v51.7c0 2.8-2.2 5-5 5zm-46.6-10h41.7v-41.7h-41.7z"/></g><path d="m194.9 231.7c-2.8 0-5-2.2-5-5v-51.7c0-2.8 2.2-5 5-5s5 2.2 5 5v51.7c0 2.8-2.2 5-5 5z"/></g></g><path d="m220.7 205.9h-51.7c-2.8 0-5-2.2-5-5s2.2-5 5-5h51.7c2.8 0 5 2.2 5 5s-2.2 5-5 5z"/><path d="m340.1 205.9h-51.7c-2.8 0-5-2.2-5-5s2.2-5 5-5h51.7c2.8 0 5 2.2 5 5s-2.2 5-5 5z"/></g><g><path d="m254.6 161.7c-15.3 0-27.7-12.4-27.7-27.7s12.4-27.7 27.7-27.7 27.7 12.4 27.7 27.7c0 15.2-12.4 27.7-27.7 27.7zm0-45.4c-9.8 0-17.7 7.9-17.7 17.7s7.9 17.7 17.7 17.7 17.7-7.9 17.7-17.7-7.9-17.7-17.7-17.7z"/></g><path d="m244.9 369.8h-138.5c-2.8 0-5-2.2-5-5v-19.2c0-2.8 2.2-5 5-5h148.5c2.8 0 5 2.2 5 5s-2.2 5-5 5h-143.5v9.2h133.5c2.8 0 5 2.2 5 5s-2.3 5-5 5z"/></g><path d="m440 400.5h-169.1c-2 0-3.8-1.2-4.6-3.1s-.3-4 1.1-5.4l169.1-169.1c1.4-1.4 3.6-1.9 5.4-1.1 1.9.8 3.1 2.6 3.1 4.6v169.1c0 2.7-2.2 5-5 5zm-157-10h152v-152.1z"/><path d="m409.3 369.7h-64.2c-2 0-3.8-1.2-4.6-3.1s-.3-4 1.1-5.4l64.2-64.2c1.4-1.4 3.6-1.9 5.4-1.1 1.9.8 3.1 2.6 3.1 4.6v64.2c0 2.8-2.3 5-5 5zm-52.2-10h47.1v-47.1z"/><g><path d="m242.7 373.8c-1.3 0-2.6-.5-3.5-1.5-1.5-1.5-1.9-3.9-.9-5.9l24-45.8c.2-.4.5-.9.9-1.2l120.3-120.3c7.9-7.9 20.9-7.9 28.8 0s7.9 20.9 0 28.8l-120.2 120.4c-.4.4-.8.7-1.2.9l-45.8 24c-.8.4-1.6.6-2.4.6zm28.2-47.8-16.2 30.9 30.9-16.2 119.8-119.8c4-4 4-10.6 0-14.7-4-4-10.6-4-14.7 0z"/><path d="m288.5 349.8c-1.3 0-2.6-.5-3.5-1.5l-21.8-21.8c-2-2-2-5.1 0-7.1s5.1-2 7.1 0l21.8 21.8c2 2 2 5.1 0 7.1-1 1-2.3 1.5-3.6 1.5z"/><path d="m397 241.3c-1.3 0-2.6-.5-3.5-1.5l-21.8-21.8c-2-2-2-5.1 0-7.1s5.1-2 7.1 0l21.8 21.8c2 2 2 5.1 0 7.1-1.1 1-2.3 1.5-3.6 1.5z"/></g><path d="m71.6 368.6h-61.6c-2.8 0-5-2.2-5-5v-308c0-2.8 2.2-5 5-5h61.6c2.8 0 5 2.2 5 5v308c0 2.8-2.3 5-5 5zm-56.6-10h51.6v-298h-51.6z"/><g><path d="m71.6 86.8h-24.3c-2.8 0-5-2.2-5-5s2.2-5 5-5h24.3c2.8 0 5 2.2 5 5s-2.3 5-5 5z"/><path d="m71.6 115.2h-12.2c-2.8 0-5-2.2-5-5s2.2-5 5-5h12.1c2.8 0 5 2.2 5 5s-2.2 5-4.9 5z"/><path d="m71.6 143.6h-24.3c-2.8 0-5-2.2-5-5s2.2-5 5-5h24.3c2.8 0 5 2.2 5 5s-2.3 5-5 5z"/><path d="m71.6 172h-12.2c-2.8 0-5-2.2-5-5s2.2-5 5-5h12.1c2.8 0 5 2.2 5 5s-2.2 5-4.9 5z"/><path d="m71.6 200.4h-24.3c-2.8 0-5-2.2-5-5s2.2-5 5-5h24.3c2.8 0 5 2.2 5 5s-2.3 5-5 5z"/><path d="m71.6 228.8h-12.2c-2.8 0-5-2.2-5-5s2.2-5 5-5h12.1c2.8 0 5 2.2 5 5 .1 2.8-2.2 5-4.9 5z"/><path d="m71.6 257.2h-24.3c-2.8 0-5-2.2-5-5s2.2-5 5-5h24.3c2.8 0 5 2.2 5 5s-2.3 5-5 5z"/><path d="m71.6 285.6h-12.2c-2.8 0-5-2.2-5-5s2.2-5 5-5h12.1c2.8 0 5 2.2 5 5s-2.2 5-4.9 5z"/><path d="m71.6 314.1h-24.3c-2.8 0-5-2.2-5-5s2.2-5 5-5h24.3c2.8 0 5 2.2 5 5s-2.3 5-5 5z"/><path d="m71.6 342.5h-12.2c-2.8 0-5-2.2-5-5s2.2-5 5-5h12.1c2.8 0 5 2.2 5 5s-2.2 5-4.9 5z"/></g></g></svg>