<svg width="62" height="62" viewBox="0 0 62 62" fill="none" xmlns="http://www.w3.org/2000/svg">
<path d="M61.9904 30.9976L54.6837 23.6903C56.2846 21.6448 57.1543 19.1405 57.1543 16.5024C57.1543 13.3864 55.9405 10.452 53.7375 8.24882C51.5344 6.04563 48.6051 4.83173 45.4845 4.83173C42.8466 4.83173 40.3425 5.70153 38.2972 7.30255L30.9952 0L23.6885 7.30733C19.1152 3.72774 12.4631 4.04317 8.25297 8.2536C6.04995 10.4568 4.83613 13.3864 4.83613 16.5072C4.83613 19.1453 5.70587 21.6496 7.30677 23.6951L0 30.9976L7.30677 38.3049C5.70587 40.3504 4.83613 42.8547 4.83613 45.4928C4.83613 48.6088 6.04995 51.5432 8.25297 53.7464C10.456 55.9496 13.3902 57.1635 16.5059 57.1635C19.1438 57.1635 21.6479 56.2937 23.6932 54.6927L31 62L38.3068 54.6927C40.3521 56.2937 42.8562 57.1635 45.4941 57.1635C48.6098 57.1635 51.544 55.9496 53.747 53.7464C55.9501 51.5432 57.1639 48.6088 57.1639 45.4928C57.1639 42.8547 56.2941 40.3504 54.6932 38.3049L62 30.9976H61.9904ZM51.7256 51.7296C50.0578 53.3975 47.8452 54.3151 45.4845 54.3151C43.1238 54.3151 40.9112 53.3975 39.2434 51.7296L38.2351 50.7212L30.9904 57.9664L23.7458 50.7212L22.7375 51.7296C21.0697 53.3975 18.8571 54.3151 16.4964 54.3151C14.1357 54.3151 11.9231 53.3975 10.2553 51.7296C8.58748 50.0617 7.66995 47.8489 7.66995 45.488C7.66995 43.1271 8.58748 40.9144 10.2553 39.2464L11.2636 38.238L4.01896 30.9928L11.2636 23.7476L10.2553 22.7392C8.58748 21.0713 7.66995 18.8586 7.66995 16.4976C7.66995 14.1367 8.58748 11.924 10.2553 10.2561C13.696 6.81508 19.292 6.81508 22.7327 10.2561L23.741 11.2645L30.9857 4.01927L38.2303 11.2645L39.2386 10.2561C40.9064 8.58814 43.119 7.67055 45.4797 7.67055C47.8404 7.67055 50.053 8.58814 51.7208 10.2561C53.3886 11.924 54.3061 14.1367 54.3061 16.4976C54.3061 18.8586 53.3886 21.0713 51.7208 22.7392L50.7125 23.7476L57.9571 30.9928L50.7125 38.238L51.7208 39.2464C53.3886 40.9144 54.3061 43.1271 54.3061 45.488C54.3061 47.8489 53.3886 50.0617 51.7208 51.7296H51.7256Z" fill="#231F20" fill-opacity="0.3"/>
<path d="M28.0803 38L30 36.0787L18.8735 24.943L14.9655 21.0317C13.2956 19.3604 13.2956 16.6402 14.9655 14.9688C16.6355 13.2975 19.3534 13.2975 21.0234 14.9688L24.9314 18.8801L27.6885 21.6395L29.6082 19.7182L22.9431 13.0475C20.2153 10.3175 15.7736 10.3175 13.0458 13.0475C10.3181 15.7775 10.3181 20.223 13.0458 22.953L28.0803 38Z" fill="#231F20" fill-opacity="0.3"/>
<path d="M26.8501 29L37.5735 17.8735L41.3398 13.9655C42.9493 12.2956 45.5687 12.2956 47.1782 13.9655C48.7876 15.6355 48.7876 18.3534 47.1782 20.0234L43.4118 23.9314L40.7546 26.6885L42.6047 28.6082L49.0283 21.9431C51.6572 19.2153 51.6572 14.7736 49.0283 12.0458C46.3994 9.31806 42.1186 9.31806 39.4897 12.0458L25 27.0803L26.8501 29Z" fill="#231F20" fill-opacity="0.3"/>
<path d="M33.9197 24L32 25.8501L43.1265 36.5735L47.0345 40.3398C48.7044 41.9493 48.7044 44.5687 47.0345 46.1782C45.3645 47.7876 42.6466 47.7876 40.9766 46.1782L37.0686 42.4118L34.3115 39.7546L32.3918 41.6047L39.0569 48.0283C41.7847 50.6572 46.2264 50.6572 48.9542 48.0283C51.6819 45.3994 51.6819 41.1186 48.9542 38.4897L33.9197 24Z" fill="#231F20" fill-opacity="0.3"/>
<path d="M35.0787 33L23.943 43.5409L20.0317 47.2432C18.3604 48.8252 15.6402 48.8252 13.9688 47.2432C12.2975 45.6611 12.2975 43.0862 13.9688 41.5042L17.8801 37.8019L20.6395 35.1898L18.7182 33.3712L12.0475 39.6855C9.31749 42.2697 9.31749 46.4777 12.0475 49.0619C14.7775 51.646 19.223 51.646 21.953 49.0619L37 34.8187L35.0787 33Z" fill="#231F20" fill-opacity="0.3"/>
</svg>
