<svg width="42" height="32" viewBox="0 0 42 32" fill="none" xmlns="http://www.w3.org/2000/svg">
<path d="M10.2713 12.8334C9.81602 12.8334 9.3791 12.9042 8.94423 12.9688C9.0851 12.4855 9.23006 11.9938 9.46281 11.5521C9.69556 10.9105 10.059 10.3542 10.4204 9.79379C10.7225 9.18754 11.2554 8.77712 11.6474 8.25837C12.0578 7.75421 12.6172 7.41879 13.0602 7.00004C13.4951 6.56254 14.0647 6.34379 14.518 6.03546C14.9916 5.75837 15.4041 5.45212 15.8451 5.30629L16.9455 4.84379L17.9133 4.43337L16.9231 0.395874L15.7042 0.695873C15.3142 0.795873 14.8385 0.91254 14.2975 1.05212C13.7442 1.15629 13.1541 1.44171 12.4967 1.70212C11.8475 1.99796 11.0961 2.19796 10.3979 2.67296C9.69556 3.12712 8.88502 3.50629 8.17044 4.11462C7.47831 4.74171 6.64327 5.28546 6.02669 6.08337C5.35294 6.82921 4.68735 7.61254 4.17081 8.50421C3.5726 9.35421 3.16631 10.2875 2.73756 11.2105C2.34965 12.1334 2.03727 13.0771 1.78206 13.9938C1.29819 15.8313 1.08177 17.5771 0.998063 19.0709C0.928646 20.5667 0.96948 21.8105 1.05523 22.7105C1.08585 23.1355 1.14302 23.548 1.18385 23.8334L1.2349 24.1834L1.28798 24.1709C1.65111 25.9018 2.48706 27.4924 3.69911 28.7587C4.91117 30.0251 6.44981 30.9154 8.13703 31.3268C9.82426 31.7381 11.5911 31.6536 13.2333 31.083C14.8754 30.5125 16.3257 29.4792 17.4163 28.1027C18.507 26.7262 19.1935 25.0628 19.3964 23.3048C19.5993 21.5469 19.3102 19.7662 18.5628 18.1688C17.8153 16.5715 16.64 15.2227 15.1726 14.2785C13.7053 13.3343 12.006 12.8333 10.2713 12.8334ZM32.7296 12.8334C32.2744 12.8334 31.8374 12.9042 31.4026 12.9688C31.5434 12.4855 31.6884 11.9938 31.9211 11.5521C32.1539 10.9105 32.5173 10.3542 32.8787 9.79379C33.1809 9.18754 33.7137 8.77712 34.1057 8.25837C34.5161 7.75421 35.0755 7.41879 35.5186 7.00004C35.9534 6.56254 36.5231 6.34379 36.9763 6.03546C37.45 5.75837 37.8624 5.45212 38.3034 5.30629L39.4039 4.84379L40.3716 4.43337L39.3814 0.395874L38.1625 0.695873C37.7726 0.795873 37.2969 0.91254 36.7558 1.05212C36.2025 1.15629 35.6125 1.44171 34.9551 1.70212C34.3078 2.00004 33.5545 2.19796 32.8562 2.67504C32.1539 3.12921 31.3434 3.50837 30.6288 4.11671C29.9366 4.74379 29.1016 5.28754 28.485 6.08337C27.8113 6.82921 27.1457 7.61254 26.6291 8.50421C26.0309 9.35421 25.6246 10.2875 25.1959 11.2105C24.808 12.1334 24.4956 13.0771 24.2404 13.9938C23.7565 15.8313 23.5401 17.5771 23.4564 19.0709C23.387 20.5667 23.4278 21.8105 23.5136 22.7105C23.5442 23.1355 23.6014 23.548 23.6422 23.8334L23.6932 24.1834L23.7463 24.1709C24.1094 25.9018 24.9454 27.4924 26.1574 28.7587C27.3695 30.0251 28.9081 30.9154 30.5954 31.3268C32.2826 31.7381 34.0495 31.6536 35.6916 31.083C37.3337 30.5125 38.784 29.4792 39.8747 28.1027C40.9653 26.7262 41.6518 25.0628 41.8547 23.3048C42.0576 21.5469 41.7686 19.7662 41.0211 18.1688C40.2737 16.5715 39.0983 15.2227 37.631 14.2785C36.1637 13.3343 34.4644 12.8333 32.7296 12.8334Z" fill="#846C5B"/>
</svg>
