<svg width="1002" height="595" viewBox="0 0 1002 595" fill="none" xmlns="http://www.w3.org/2000/svg">
<path fill-rule="evenodd" clip-rule="evenodd" d="M392.734 0H1001.77V595H392.782H311.771H239.374C239.23 593.318 239.117 591.626 239.003 589.934C238.758 586.28 238.512 582.625 237.966 579.064C233.758 551.531 221.645 528.039 201.221 509.052C179.76 489.051 154.162 478.503 124.821 477.097C123.833 477.048 122.851 476.919 121.751 476.774C121.217 476.704 120.655 476.63 120.051 476.56C120.051 473.742 120.029 471.027 120.008 468.359C119.99 466.221 119.973 464.113 119.968 462.007V447.132C119.968 445.543 119.977 443.954 119.987 442.364C120.005 439.186 120.024 436.008 119.968 432.829C119.943 431.386 119.976 429.914 120.011 428.421C120.089 424.979 120.171 421.425 119.539 417.859C119.036 417.804 118.55 417.744 118.076 417.685C117.201 417.576 116.363 417.472 115.521 417.418C106.958 416.941 98.4564 415.677 90.1255 413.639C66.0956 407.394 44.6112 393.815 28.6621 374.793C12.7131 355.77 3.09298 332.249 1.14107 307.505C-0.810842 282.76 5.0024 258.023 17.7717 236.736C30.5409 215.449 49.631 198.672 72.3848 188.738C86.0835 182.87 100.728 179.519 115.616 178.846C116.488 178.797 117.354 178.672 118.34 178.53C118.811 178.462 119.31 178.391 119.849 178.321C119.849 177.155 119.886 176.045 119.923 174.962C119.958 173.932 119.992 172.926 119.992 171.921V125.591C119.992 125.187 119.974 124.778 119.955 124.365C119.882 122.718 119.806 121.016 120.874 119.405C121.36 119.373 121.838 119.344 122.309 119.316C123.385 119.253 124.428 119.191 125.464 119.083C126.923 118.943 128.385 118.824 129.846 118.704C133.33 118.421 136.813 118.137 140.248 117.558C161.883 113.792 182.06 104.136 198.563 89.6525C215.066 75.1688 227.256 56.4176 233.794 35.4592C237.218 23.9403 239.083 12.0143 239.338 0H311.771H392.734Z" fill="black"/>
</svg>
